<mxfile host="app.diagrams.net" agent="Mozilla/5.0 (Linux; Android 10; K) AppleWebKit/537.36 (KHTML, like Gecko) Chrome/138.0.0.0 Mobile Safari/537.36" version="27.2.0">
  <diagram name="Página-1" id="5rR3K49tq02i1T-8PmwM">
    <mxGraphModel>
      <root>
        <mxCell id="0" />
        <mxCell id="1" parent="0" />
        <mxCell id="2" value="Café" style="whiteSpace=wrap;strokeWidth=2;" vertex="1" parent="1">
          <mxGeometry x="1980" y="8" width="93" height="54" as="geometry" />
        </mxCell>
        <mxCell id="3" value="Menu" style="whiteSpace=wrap;strokeWidth=2;" vertex="1" parent="1">
          <mxGeometry x="833" y="112" width="100" height="54" as="geometry" />
        </mxCell>
        <mxCell id="4" value="Ambiance" style="whiteSpace=wrap;strokeWidth=2;" vertex="1" parent="1">
          <mxGeometry x="1688" y="112" width="132" height="54" as="geometry" />
        </mxCell>
        <mxCell id="5" value="Staff" style="whiteSpace=wrap;strokeWidth=2;" vertex="1" parent="1">
          <mxGeometry x="2436" y="112" width="95" height="54" as="geometry" />
        </mxCell>
        <mxCell id="6" value="Location" style="whiteSpace=wrap;strokeWidth=2;" vertex="1" parent="1">
          <mxGeometry x="3063" y="112" width="122" height="54" as="geometry" />
        </mxCell>
        <mxCell id="7" value="Coffee" style="whiteSpace=wrap;strokeWidth=2;" vertex="1" parent="1">
          <mxGeometry x="178" y="216" width="107" height="54" as="geometry" />
        </mxCell>
        <mxCell id="8" value="Tea" style="whiteSpace=wrap;strokeWidth=2;" vertex="1" parent="1">
          <mxGeometry x="688" y="216" width="86" height="54" as="geometry" />
        </mxCell>
        <mxCell id="9" value="Pastries" style="whiteSpace=wrap;strokeWidth=2;" vertex="1" parent="1">
          <mxGeometry x="824" y="216" width="118" height="54" as="geometry" />
        </mxCell>
        <mxCell id="10" value="Sandwiches" style="whiteSpace=wrap;strokeWidth=2;" vertex="1" parent="1">
          <mxGeometry x="992" y="216" width="146" height="54" as="geometry" />
        </mxCell>
        <mxCell id="11" value="Specials" style="whiteSpace=wrap;strokeWidth=2;" vertex="1" parent="1">
          <mxGeometry x="1188" y="216" width="120" height="54" as="geometry" />
        </mxCell>
        <mxCell id="12" value="Indoor Seating" style="whiteSpace=wrap;strokeWidth=2;" vertex="1" parent="1">
          <mxGeometry x="1358" y="216" width="163" height="54" as="geometry" />
        </mxCell>
        <mxCell id="13" value="Outdoor Seating" style="whiteSpace=wrap;strokeWidth=2;" vertex="1" parent="1">
          <mxGeometry x="1572" y="216" width="175" height="54" as="geometry" />
        </mxCell>
        <mxCell id="14" value="Decor" style="whiteSpace=wrap;strokeWidth=2;" vertex="1" parent="1">
          <mxGeometry x="1797" y="216" width="102" height="54" as="geometry" />
        </mxCell>
        <mxCell id="15" value="Music" style="whiteSpace=wrap;strokeWidth=2;" vertex="1" parent="1">
          <mxGeometry x="1949" y="216" width="103" height="54" as="geometry" />
        </mxCell>
        <mxCell id="16" value="Baristas" style="whiteSpace=wrap;strokeWidth=2;" vertex="1" parent="1">
          <mxGeometry x="2102" y="216" width="118" height="54" as="geometry" />
        </mxCell>
        <mxCell id="17" value="Waitstaff" style="whiteSpace=wrap;strokeWidth=2;" vertex="1" parent="1">
          <mxGeometry x="2344" y="216" width="125" height="54" as="geometry" />
        </mxCell>
        <mxCell id="18" value="Managers" style="whiteSpace=wrap;strokeWidth=2;" vertex="1" parent="1">
          <mxGeometry x="2622" y="216" width="131" height="54" as="geometry" />
        </mxCell>
        <mxCell id="19" value="Downtown" style="whiteSpace=wrap;strokeWidth=2;" vertex="1" parent="1">
          <mxGeometry x="2804" y="216" width="136" height="54" as="geometry" />
        </mxCell>
        <mxCell id="20" value="Suburbs" style="whiteSpace=wrap;strokeWidth=2;" vertex="1" parent="1">
          <mxGeometry x="2989" y="216" width="119" height="54" as="geometry" />
        </mxCell>
        <mxCell id="21" value="Near Park" style="whiteSpace=wrap;strokeWidth=2;" vertex="1" parent="1">
          <mxGeometry x="3158" y="216" width="130" height="54" as="geometry" />
        </mxCell>
        <mxCell id="22" value="Espresso" style="whiteSpace=wrap;strokeWidth=2;" vertex="1" parent="1">
          <mxGeometry x="8" y="320" width="126" height="54" as="geometry" />
        </mxCell>
        <mxCell id="23" value="Latte" style="whiteSpace=wrap;strokeWidth=2;" vertex="1" parent="1">
          <mxGeometry x="184" y="320" width="96" height="54" as="geometry" />
        </mxCell>
        <mxCell id="24" value="Cappuccino" style="whiteSpace=wrap;strokeWidth=2;" vertex="1" parent="1">
          <mxGeometry x="330" y="320" width="145" height="54" as="geometry" />
        </mxCell>
        <mxCell id="25" value="Herbal" style="whiteSpace=wrap;strokeWidth=2;" vertex="1" parent="1">
          <mxGeometry x="525" y="320" width="107" height="54" as="geometry" />
        </mxCell>
        <mxCell id="26" value="Black" style="whiteSpace=wrap;strokeWidth=2;" vertex="1" parent="1">
          <mxGeometry x="681" y="320" width="99" height="54" as="geometry" />
        </mxCell>
        <mxCell id="27" value="Green" style="whiteSpace=wrap;strokeWidth=2;" vertex="1" parent="1">
          <mxGeometry x="1314" y="320" width="102" height="54" as="geometry" />
        </mxCell>
        <mxCell id="28" value="Training" style="whiteSpace=wrap;strokeWidth=2;" vertex="1" parent="1">
          <mxGeometry x="1466" y="320" width="117" height="54" as="geometry" />
        </mxCell>
        <mxCell id="29" value="Experience" style="whiteSpace=wrap;strokeWidth=2;" vertex="1" parent="1">
          <mxGeometry x="2105" y="320" width="138" height="54" as="geometry" />
        </mxCell>
        <mxCell id="30" value="Customer Service Skills" style="whiteSpace=wrap;strokeWidth=2;" vertex="1" parent="1">
          <mxGeometry x="2293" y="320" width="227" height="54" as="geometry" />
        </mxCell>
        <mxCell id="31" value="Management Experience" style="whiteSpace=wrap;strokeWidth=2;" vertex="1" parent="1">
          <mxGeometry x="2570" y="320" width="236" height="54" as="geometry" />
        </mxCell>
        <mxCell id="32" value="" style="curved=1;startArrow=none;endArrow=block;exitX=0;exitY=0.54;entryX=0.5;entryY=0;" edge="1" parent="1" source="2" target="3">
          <mxGeometry relative="1" as="geometry">
            <Array as="points">
              <mxPoint x="883" y="87" />
            </Array>
          </mxGeometry>
        </mxCell>
        <mxCell id="33" value="" style="curved=1;startArrow=none;endArrow=block;exitX=0;exitY=0.66;entryX=0.5;entryY=0;" edge="1" parent="1" source="2" target="4">
          <mxGeometry relative="1" as="geometry">
            <Array as="points">
              <mxPoint x="1754" y="87" />
            </Array>
          </mxGeometry>
        </mxCell>
        <mxCell id="34" value="" style="curved=1;startArrow=none;endArrow=block;exitX=1;exitY=0.6;entryX=0.49;entryY=0;" edge="1" parent="1" source="2" target="5">
          <mxGeometry relative="1" as="geometry">
            <Array as="points">
              <mxPoint x="2483" y="87" />
            </Array>
          </mxGeometry>
        </mxCell>
        <mxCell id="35" value="" style="curved=1;startArrow=none;endArrow=block;exitX=1;exitY=0.54;entryX=0.5;entryY=0;" edge="1" parent="1" source="2" target="6">
          <mxGeometry relative="1" as="geometry">
            <Array as="points">
              <mxPoint x="3124" y="87" />
            </Array>
          </mxGeometry>
        </mxCell>
        <mxCell id="36" value="" style="curved=1;startArrow=none;endArrow=block;exitX=0;exitY=0.57;entryX=0.5;entryY=0;" edge="1" parent="1" source="3" target="7">
          <mxGeometry relative="1" as="geometry">
            <Array as="points">
              <mxPoint x="232" y="191" />
            </Array>
          </mxGeometry>
        </mxCell>
        <mxCell id="37" value="" style="curved=1;startArrow=none;endArrow=block;exitX=0;exitY=0.82;entryX=0.5;entryY=0;" edge="1" parent="1" source="3" target="8">
          <mxGeometry relative="1" as="geometry">
            <Array as="points">
              <mxPoint x="731" y="191" />
            </Array>
          </mxGeometry>
        </mxCell>
        <mxCell id="38" value="" style="curved=1;startArrow=none;endArrow=block;exitX=0.5;exitY=1;entryX=0.5;entryY=0;" edge="1" parent="1" source="3" target="9">
          <mxGeometry relative="1" as="geometry">
            <Array as="points" />
          </mxGeometry>
        </mxCell>
        <mxCell id="39" value="" style="curved=1;startArrow=none;endArrow=block;exitX=1;exitY=0.76;entryX=0.5;entryY=0;" edge="1" parent="1" source="3" target="10">
          <mxGeometry relative="1" as="geometry">
            <Array as="points">
              <mxPoint x="1065" y="191" />
            </Array>
          </mxGeometry>
        </mxCell>
        <mxCell id="40" value="" style="curved=1;startArrow=none;endArrow=block;exitX=1;exitY=0.63;entryX=0.5;entryY=0;" edge="1" parent="1" source="3" target="11">
          <mxGeometry relative="1" as="geometry">
            <Array as="points">
              <mxPoint x="1248" y="191" />
            </Array>
          </mxGeometry>
        </mxCell>
        <mxCell id="41" value="" style="curved=1;startArrow=none;endArrow=block;exitX=0;exitY=0.7;entryX=0.5;entryY=0;" edge="1" parent="1" source="4" target="12">
          <mxGeometry relative="1" as="geometry">
            <Array as="points">
              <mxPoint x="1440" y="191" />
            </Array>
          </mxGeometry>
        </mxCell>
        <mxCell id="42" value="" style="curved=1;startArrow=none;endArrow=block;exitX=0.13;exitY=1;entryX=0.5;entryY=0;" edge="1" parent="1" source="4" target="13">
          <mxGeometry relative="1" as="geometry">
            <Array as="points">
              <mxPoint x="1659" y="191" />
            </Array>
          </mxGeometry>
        </mxCell>
        <mxCell id="43" value="" style="curved=1;startArrow=none;endArrow=block;exitX=0.87;exitY=1;entryX=0.5;entryY=0;" edge="1" parent="1" source="4" target="14">
          <mxGeometry relative="1" as="geometry">
            <Array as="points">
              <mxPoint x="1848" y="191" />
            </Array>
          </mxGeometry>
        </mxCell>
        <mxCell id="44" value="" style="curved=1;startArrow=none;endArrow=block;exitX=1;exitY=0.76;entryX=0.5;entryY=0;" edge="1" parent="1" source="4" target="15">
          <mxGeometry relative="1" as="geometry">
            <Array as="points">
              <mxPoint x="2001" y="191" />
            </Array>
          </mxGeometry>
        </mxCell>
        <mxCell id="45" value="" style="curved=1;startArrow=none;endArrow=block;exitX=0;exitY=0.64;entryX=0.5;entryY=0;" edge="1" parent="1" source="5" target="16">
          <mxGeometry relative="1" as="geometry">
            <Array as="points">
              <mxPoint x="2161" y="191" />
            </Array>
          </mxGeometry>
        </mxCell>
        <mxCell id="46" value="" style="curved=1;startArrow=none;endArrow=block;exitX=0.08;exitY=1;entryX=0.5;entryY=0;" edge="1" parent="1" source="5" target="17">
          <mxGeometry relative="1" as="geometry">
            <Array as="points">
              <mxPoint x="2406" y="191" />
            </Array>
          </mxGeometry>
        </mxCell>
        <mxCell id="47" value="" style="curved=1;startArrow=none;endArrow=block;exitX=0.99;exitY=0.72;entryX=0.5;entryY=0;" edge="1" parent="1" source="5" target="18">
          <mxGeometry relative="1" as="geometry">
            <Array as="points">
              <mxPoint x="2688" y="191" />
            </Array>
          </mxGeometry>
        </mxCell>
        <mxCell id="48" value="" style="curved=1;startArrow=none;endArrow=block;exitX=0;exitY=0.73;entryX=0.5;entryY=0;" edge="1" parent="1" source="6" target="19">
          <mxGeometry relative="1" as="geometry">
            <Array as="points">
              <mxPoint x="2872" y="191" />
            </Array>
          </mxGeometry>
        </mxCell>
        <mxCell id="49" value="" style="curved=1;startArrow=none;endArrow=block;exitX=0.18;exitY=1;entryX=0.5;entryY=0;" edge="1" parent="1" source="6" target="20">
          <mxGeometry relative="1" as="geometry">
            <Array as="points">
              <mxPoint x="3049" y="191" />
            </Array>
          </mxGeometry>
        </mxCell>
        <mxCell id="50" value="" style="curved=1;startArrow=none;endArrow=block;exitX=0.92;exitY=1;entryX=0.5;entryY=0;" edge="1" parent="1" source="6" target="21">
          <mxGeometry relative="1" as="geometry">
            <Array as="points">
              <mxPoint x="3223" y="191" />
            </Array>
          </mxGeometry>
        </mxCell>
        <mxCell id="51" value="" style="curved=1;startArrow=none;endArrow=block;exitX=0;exitY=0.82;entryX=0.5;entryY=0;" edge="1" parent="1" source="7" target="22">
          <mxGeometry relative="1" as="geometry">
            <Array as="points">
              <mxPoint x="71" y="295" />
            </Array>
          </mxGeometry>
        </mxCell>
        <mxCell id="52" value="" style="curved=1;startArrow=none;endArrow=block;exitX=0.5;exitY=1;entryX=0.5;entryY=0;" edge="1" parent="1" source="7" target="23">
          <mxGeometry relative="1" as="geometry">
            <Array as="points" />
          </mxGeometry>
        </mxCell>
        <mxCell id="53" value="" style="curved=1;startArrow=none;endArrow=block;exitX=1.01;exitY=0.8;entryX=0.5;entryY=0;" edge="1" parent="1" source="7" target="24">
          <mxGeometry relative="1" as="geometry">
            <Array as="points">
              <mxPoint x="402" y="295" />
            </Array>
          </mxGeometry>
        </mxCell>
        <mxCell id="54" value="" style="curved=1;startArrow=none;endArrow=block;exitX=0;exitY=0.77;entryX=0.5;entryY=0;" edge="1" parent="1" source="8" target="25">
          <mxGeometry relative="1" as="geometry">
            <Array as="points">
              <mxPoint x="578" y="295" />
            </Array>
          </mxGeometry>
        </mxCell>
        <mxCell id="55" value="" style="curved=1;startArrow=none;endArrow=block;exitX=0.5;exitY=1;entryX=0.5;entryY=0;" edge="1" parent="1" source="8" target="26">
          <mxGeometry relative="1" as="geometry">
            <Array as="points" />
          </mxGeometry>
        </mxCell>
        <mxCell id="56" value="" style="curved=1;startArrow=none;endArrow=block;exitX=1;exitY=0.57;entryX=0.5;entryY=0;" edge="1" parent="1" source="8" target="27">
          <mxGeometry relative="1" as="geometry">
            <Array as="points">
              <mxPoint x="1365" y="295" />
            </Array>
          </mxGeometry>
        </mxCell>
        <mxCell id="57" value="" style="curved=1;startArrow=none;endArrow=block;exitX=0;exitY=0.59;entryX=0.5;entryY=0;" edge="1" parent="1" source="16" target="28">
          <mxGeometry relative="1" as="geometry">
            <Array as="points">
              <mxPoint x="1525" y="295" />
            </Array>
          </mxGeometry>
        </mxCell>
        <mxCell id="58" value="" style="curved=1;startArrow=none;endArrow=block;exitX=0.56;exitY=1;entryX=0.5;entryY=0;" edge="1" parent="1" source="16" target="29">
          <mxGeometry relative="1" as="geometry">
            <Array as="points">
              <mxPoint x="2174" y="295" />
            </Array>
          </mxGeometry>
        </mxCell>
        <mxCell id="59" value="" style="curved=1;startArrow=none;endArrow=block;exitX=0.5;exitY=1;entryX=0.5;entryY=0;" edge="1" parent="1" source="17" target="30">
          <mxGeometry relative="1" as="geometry">
            <Array as="points" />
          </mxGeometry>
        </mxCell>
        <mxCell id="60" value="" style="curved=1;startArrow=none;endArrow=block;exitX=0.5;exitY=1;entryX=0.5;entryY=0;" edge="1" parent="1" source="18" target="31">
          <mxGeometry relative="1" as="geometry">
            <Array as="points" />
          </mxGeometry>
        </mxCell>
      </root>
    </mxGraphModel>
  </diagram>
</mxfile>
